<svg id="Floofy_Logo" data-name="Floofy Logo" xmlns="http://www.w3.org/2000/svg" width="643.45" height="360.89"><g id="Line" fill="#fff"><path d="M375 403.89h300.78a144 144 0 0 0-29 12.44H375ZM804.07 403.89h136.48c-2 4.33-4 8.57-5.86 12.44H810.81c-.37-.55-.73-1.1-1.08-1.66a99 99 0 0 1-5.66-10.78ZM1011.33 403.89v12.44h-54.12c1.64-3.51 3.61-7.9 5.6-12.44Z" transform="translate(-375 -219.96)"/></g><path id="y" d="M1018.45 270.53 972 377.17a1.37 1.37 0 0 1-.07.16l-17 38.94v.06c-7 14.8-7.52 43.7-14 62-8.52 24.23-15.85 37.48-21.41 45.86s-13.7 18.74-32.89 32.74c-17.35 12.66-35.43 18.17-44.86 20.64l-2.69.69c-8.3 2.07-22.38 2.59-22.38 2.59s3.26-1 9.78-4.74c10.22-5.92 12.18-10.86 12.29-11.17-.24.06-8.24 2.39-24.14 2.5-23.2.16-34.74-4.44-47.7-8.29s-32-10.95-48.74-17c-17.93-6.45-27.3-5.5-36.52-3.19-13.63 3.41-23.45 14.33-23.45 14.33a33.86 33.86 0 0 1 .78-4.77c1.48-6.67 2.67-10.75 6.45-16.15A44.7 44.7 0 0 1 675 523s-2.37-2.64-8-5.08a90 90 0 0 0-24.59-6.08c-12.89-1.25-23.15-.59-37.59 4.08-7.6 2.46-15 7.22-21.33 12.31-.07-1.58-.1-3.17-.1-4.76 0-45.68 27.11-85.6 67.47-107.11a142.84 142.84 0 0 1 32.36-12.44 150.09 150.09 0 0 1 60.33-2.51l1 .17q5.67 1 11.17 2.34c3.38.85 6.7 1.81 10 2.91l1.38.45 1.33.45.95.34a101 101 0 0 1 11.88 4.89l.13.06q3.39 1.58 6.66 3.32c.58.31 1.16.62 1.73.95s1.35.75 2 1.14l1.23.73.35.2a4.91 4.91 0 0 1 .44.25l.23.13.35.21c.14.1.3.17.43.26l1 .61.65.39.61.39a9.06 9.06 0 0 1-.82-1.71c-.56-1.31-1-2.47-1.41-3.56-1.41-3.88-2-6.85-2.73-12.44 0-.29-.08-.58-.12-.89a91 91 0 0 1-.28-17.89c.23-2.92.84-6 .84-6a26.3 26.3 0 0 1 .81 3.41c.4 1.94 4.24 12.15 8.49 21.41a105.7 105.7 0 0 0 6.15 11.82l.37.58c5.88 9.06 15.19 20.41 25.37 28.08 5.62 4.23 22.22 12 32.78 13.92a57.75 57.75 0 0 0 30.92-3.11c7.63-3.11 21.78-11.26 29.78-21.48 2.28-2.92 5.78-9.47 9.64-17.41 1-2.13 2.1-4.36 3.17-6.65.9-1.9 1.8-3.84 2.69-5.79 2.81-6.14 5.58-12.41 8-18l-.13-.3L899.6 271h17.33l42.35 95 42.05-95.47Z" transform="translate(-375 -219.96)" fill="#fff"/><path id="f" d="M864 244v27h25v15h-25v111h-17V286h-17v-15h17v-27a34.06 34.06 0 0 1 2.07-10.85c3.45-9.56 12.55-11.86 16.86-12.63a42.2 42.2 0 0 1 15.66.44c3.94.68 9.6 2.3 9.6 2.3v16a48.23 48.23 0 0 0-8.08-2.48 40.3 40.3 0 0 0-10.11-.56 10.16 10.16 0 0 0-7 2.85 7.84 7.84 0 0 0-2 4.93Z" transform="translate(-375 -219.96)" fill="#fff"/><path id="o" d="M744.5 268a64.5 64.5 0 1 0 64.5 64.5 64.5 64.5 0 0 0-64.5-64.5Zm0 114a49.5 49.5 0 1 1 49.5-49.5 49.5 49.5 0 0 1-49.5 49.5Z" transform="translate(-375 -219.96)" fill="#fff"/><path id="o-2" data-name="o" d="M592.5 268a64.5 64.5 0 1 0 64.5 64.5 64.5 64.5 0 0 0-64.5-64.5Zm-1 114a49.5 49.5 0 1 1 49.5-49.5 49.5 49.5 0 0 1-49.5 49.5Z" transform="translate(-375 -219.96)" fill="#fff"/><path id="l" fill="#fff" d="M108 7.04h17v170h-17z"/><path id="F-2" data-name="F" fill="#fff" d="M17 24.54v51.5h68v18H17v83H0v-170h85v17.5H17z"/></svg>