<svg id="Floofy_Logo" data-name="Floofy Logo" xmlns="http://www.w3.org/2000/svg" width="373.57" height="201.69" viewBox="0 0 373.57 201.69"><path d="M956.92,396.31c-.67,20.84-9.63,63.61-14.6,77.78-8.52,24.23-17.13,41.72-22.69,50.1s-13.7,18.74-32.89,32.74c-17.35,12.66-35.43,18.17-44.86,20.64l-2.69.69c-8.3,2.07-22.38,2.59-22.38,2.59s3.26-1,9.78-4.74c10.22-5.92,12.18-10.86,12.29-11.17-.24.06-8.24,2.39-24.14,2.5-23.2.16-34.74-4.44-47.7-8.29s-32-10.95-48.74-17c-17.93-6.45-27.3-5.5-36.52-3.19-13.63,3.41-23.45,14.33-23.45,14.33a33.86,33.86,0,0,1,.78-4.77c1.48-6.67,2.67-10.75,6.45-16.15A44.7,44.7,0,0,1,675,523s-2.37-2.64-8-5.08a90,90,0,0,0-24.59-6.08c-12.89-1.25-23.15-.59-37.59,4.08-7.6,2.46-15,7.22-21.33,12.31-.07-1.58-.1-3.17-.1-4.76,0-45.68,27.11-85.6,67.47-107.11a142.84,142.84,0,0,1,32.36-12.44,150.09,150.09,0,0,1,60.33-2.51l1,.17h0q5.67,1,11.17,2.34c3.38.85,6.7,1.81,10,2.91l1.38.45h0l1.33.45.95.34h0a101,101,0,0,1,11.88,4.89h0l.13.06h0q3.39,1.58,6.66,3.32c.58.31,1.16.62,1.73.95s1.35.75,2,1.14l1.23.73.35.2a4.91,4.91,0,0,1,.44.25l.23.13.35.21h0c.14.1.3.17.43.26l1,.61.65.39.61.39a9.06,9.06,0,0,1-.82-1.71c-.56-1.31-1-2.47-1.41-3.56-1.41-3.88-2-6.85-2.73-12.44,0-.29-.08-.58-.12-.89a91,91,0,0,1-.28-17.89,27.16,27.16,0,0,1,1.33-5.95c1.41,40.69,38,73.28,83,73.28C914.49,452.44,947.53,428.74,956.92,396.31Z" transform="translate(-583.35 -379.16)" fill="#fff"/></svg>